<svg id="visual" viewBox="0 0 1920 1080" width="1920" height="1080" xmlns="http://www.w3.org/2000/svg" xmlns:xlink="http://www.w3.org/1999/xlink" version="1.1"><rect x="0" y="0" width="1920" height="1080" fill="#ffffff"></rect><path d="M573 0L577 0L577 154L520 154L520 309L429 309L429 463L487 463L487 617L598 617L598 771L481 771L481 926L572 926L572 1080L0 1080L0 926L0 926L0 771L0 771L0 617L0 617L0 463L0 463L0 309L0 309L0 154L0 154L0 0L0 0Z" fill="#ffffff"></path><path d="M415 0L526 0L526 154L563 154L563 309L375 309L375 463L588 463L588 617L504 617L504 771L501 771L501 926L623 926L623 1080L0 1080L0 926L0 926L0 771L0 771L0 617L0 617L0 463L0 463L0 309L0 309L0 154L0 154L0 0L0 0Z" fill="#ebebeb"></path><path d="M413 0L380 0L380 154L445 154L445 309L286 309L286 463L326 463L326 617L345 617L345 771L432 771L432 926L392 926L392 1080L0 1080L0 926L0 926L0 771L0 771L0 617L0 617L0 463L0 463L0 309L0 309L0 154L0 154L0 0L0 0Z" fill="#d7d7d7"></path><path d="M327 0L225 0L225 154L381 154L381 309L219 309L219 463L373 463L373 617L269 617L269 771L326 771L326 926L230 926L230 1080L0 1080L0 926L0 926L0 771L0 771L0 617L0 617L0 463L0 463L0 309L0 309L0 154L0 154L0 0L0 0Z" fill="#d7d7d7"></path><path d="M105 0L158 0L158 154L175 154L175 309L271 309L271 463L215 463L215 617L147 617L147 771L240 771L240 926L274 926L274 1080L0 1080L0 926L0 926L0 771L0 771L0 617L0 617L0 463L0 463L0 309L0 309L0 154L0 154L0 0L0 0Z" fill="#ebebeb"></path><path d="M46 0L31 0L31 154L129 154L129 309L55 309L55 463L147 463L147 617L38 617L38 771L95 771L95 926L154 926L154 1080L0 1080L0 926L0 926L0 771L0 771L0 617L0 617L0 463L0 463L0 309L0 309L0 154L0 154L0 0L0 0Z" fill="#ffffff"></path></svg>