<svg id="visual" viewBox="0 0 1920 1080" width="1920" height="1080" xmlns="http://www.w3.org/2000/svg" xmlns:xlink="http://www.w3.org/1999/xlink" version="1.1"><rect x="0" y="0" width="1920" height="1080" fill="#ffffff"></rect><path d="M1349 1080L1345 1080L1345 926L1402 926L1402 771L1493 771L1493 617L1435 617L1435 463L1324 463L1324 309L1441 309L1441 154L1350 154L1350 0L1920 0L1920 154L1920 154L1920 309L1920 309L1920 463L1920 463L1920 617L1920 617L1920 771L1920 771L1920 926L1920 926L1920 1080L1920 1080Z" fill="#ffffff"></path><path d="M1507 1080L1396 1080L1396 926L1359 926L1359 771L1547 771L1547 617L1334 617L1334 463L1418 463L1418 309L1421 309L1421 154L1299 154L1299 0L1920 0L1920 154L1920 154L1920 309L1920 309L1920 463L1920 463L1920 617L1920 617L1920 771L1920 771L1920 926L1920 926L1920 1080L1920 1080Z" fill="#ebebeb"></path><path d="M1509 1080L1542 1080L1542 926L1477 926L1477 771L1636 771L1636 617L1596 617L1596 463L1577 463L1577 309L1490 309L1490 154L1530 154L1530 0L1920 0L1920 154L1920 154L1920 309L1920 309L1920 463L1920 463L1920 617L1920 617L1920 771L1920 771L1920 926L1920 926L1920 1080L1920 1080Z" fill="#d7d7d7"></path><path d="M1595 1080L1697 1080L1697 926L1541 926L1541 771L1703 771L1703 617L1549 617L1549 463L1653 463L1653 309L1596 309L1596 154L1692 154L1692 0L1920 0L1920 154L1920 154L1920 309L1920 309L1920 463L1920 463L1920 617L1920 617L1920 771L1920 771L1920 926L1920 926L1920 1080L1920 1080Z" fill="#d7d7d7"></path><path d="M1817 1080L1764 1080L1764 926L1747 926L1747 771L1651 771L1651 617L1707 617L1707 463L1775 463L1775 309L1682 309L1682 154L1648 154L1648 0L1920 0L1920 154L1920 154L1920 309L1920 309L1920 463L1920 463L1920 617L1920 617L1920 771L1920 771L1920 926L1920 926L1920 1080L1920 1080Z" fill="#ebebeb"></path><path d="M1876 1080L1891 1080L1891 926L1793 926L1793 771L1867 771L1867 617L1775 617L1775 463L1884 463L1884 309L1827 309L1827 154L1768 154L1768 0L1920 0L1920 154L1920 154L1920 309L1920 309L1920 463L1920 463L1920 617L1920 617L1920 771L1920 771L1920 926L1920 926L1920 1080L1920 1080Z" fill="#ffffff"></path></svg>