<svg id="visual" viewBox="0 0 1920 1080" width="1920" height="1080" xmlns="http://www.w3.org/2000/svg" xmlns:xlink="http://www.w3.org/1999/xlink" version="1.1"><rect x="0" y="0" width="1920" height="1080" fill="#ffffff"></rect><defs><linearGradient id="grad1_0" x1="43.8%" y1="0%" x2="100%" y2="100%"><stop offset="14.444444444444446%" stop-color="#ffffff" stop-opacity="1"></stop><stop offset="85.55555555555554%" stop-color="#ffffff" stop-opacity="1"></stop></linearGradient></defs><defs><linearGradient id="grad2_0" x1="0%" y1="0%" x2="56.3%" y2="100%"><stop offset="14.444444444444446%" stop-color="#ffffff" stop-opacity="1"></stop><stop offset="85.55555555555554%" stop-color="#ffffff" stop-opacity="1"></stop></linearGradient></defs><g transform="translate(1920, 0)"><path d="M0 432C-34.5 411.5 -69 391.1 -100.7 375.7C-132.4 360.4 -161.2 350.2 -197.5 342.1C-233.8 333.9 -277.4 327.9 -305.5 305.5C-333.6 283.1 -346.1 244.3 -363.7 210C-381.4 175.7 -404.1 145.8 -416.3 111.6C-428.5 77.3 -430.3 38.6 -432 0L0 0Z" fill="#e8e8e8"></path></g><g transform="translate(0, 1080)"><path d="M0 -432C38.7 -430.7 77.4 -429.4 111.8 -417.3C146.2 -405.2 176.3 -382.3 210 -363.7C243.7 -345.1 281 -330.8 301.9 -301.9C322.9 -273.1 327.6 -229.8 336.9 -194.5C346.2 -159.2 360.1 -132 376.7 -100.9C393.3 -69.9 412.7 -34.9 432 0L0 0Z" fill="#e8e8e8"></path></g></svg>