<svg id="visual" viewBox="0 0 1920 1080" width="1920" height="1080" xmlns="http://www.w3.org/2000/svg" xmlns:xlink="http://www.w3.org/1999/xlink" version="1.1"><rect x="0" y="0" width="1920" height="1080" fill="#ffffff"></rect><defs><linearGradient id="grad1_0" x1="43.8%" y1="100%" x2="100%" y2="0%"><stop offset="14.444444444444446%" stop-color="#ffffff" stop-opacity="1"></stop><stop offset="85.55555555555554%" stop-color="#ffffff" stop-opacity="1"></stop></linearGradient></defs><defs><linearGradient id="grad2_0" x1="0%" y1="100%" x2="56.3%" y2="0%"><stop offset="14.444444444444446%" stop-color="#ffffff" stop-opacity="1"></stop><stop offset="85.55555555555554%" stop-color="#ffffff" stop-opacity="1"></stop></linearGradient></defs><g transform="translate(1920, 1080)"><path d="M-432 0C-411.5 -34.5 -391.1 -69 -375.7 -100.7C-360.4 -132.4 -350.2 -161.2 -342.1 -197.5C-333.9 -233.8 -327.9 -277.4 -305.5 -305.5C-283.1 -333.6 -244.3 -346.1 -210 -363.7C-175.7 -381.4 -145.8 -404.1 -111.6 -416.3C-77.3 -428.5 -38.6 -430.3 0 -432L0 0Z" fill="#e8e8e8"></path></g><g transform="translate(0, 0)"><path d="M432 0C430.7 38.7 429.4 77.4 417.3 111.8C405.2 146.2 382.3 176.3 363.7 210C345.1 243.7 330.8 281 301.9 301.9C273.1 322.9 229.8 327.6 194.5 336.9C159.2 346.2 132 360.1 100.9 376.7C69.9 393.3 34.9 412.7 0 432L0 0Z" fill="#e8e8e8"></path></g></svg>